<?xml version="1.0" encoding="UTF-8"?>
<svg xmlns="http://www.w3.org/2000/svg" xmlns:xlink="http://www.w3.org/1999/xlink" width="500px" height="500px" viewBox="0 0 500 500" version="1.1">
<defs>
<filter id="alpha" filterUnits="objectBoundingBox" x="0%" y="0%" width="100%" height="100%">
  <feColorMatrix type="matrix" in="SourceGraphic" values="0 0 0 0 1 0 0 0 0 1 0 0 0 0 1 0 0 0 1 0"/>
</filter>
<mask id="mask0">
  <g filter="url(#alpha)">
<rect x="0" y="0" width="500" height="500" style="fill:rgb(0%,0%,0%);fill-opacity:0.2;stroke:none;"/>
  </g>
</mask>
<clipPath id="clip1">
  <rect x="0" y="0" width="500" height="500"/>
</clipPath>
<g id="surface5" clip-path="url(#clip1)">
<path style=" stroke:none;fill-rule:nonzero;fill:rgb(0%,0%,0%);fill-opacity:1;" d="M 139 340.109375 C 139 340.109375 139.109375 324.25 129.109375 312.359375 C 120.261719 301.828125 115.550781 295.148438 118.339844 292.070312 C 121.128906 288.988281 127.128906 288.25 135.21875 296.769531 C 143.308594 305.289062 143.941406 328.890625 142.820312 334.230469 Z M 139 340.109375 "/>
</g>
<mask id="mask1">
  <g filter="url(#alpha)">
<rect x="0" y="0" width="500" height="500" style="fill:rgb(0%,0%,0%);fill-opacity:0.2;stroke:none;"/>
  </g>
</mask>
<clipPath id="clip2">
  <rect x="0" y="0" width="500" height="500"/>
</clipPath>
<g id="surface8" clip-path="url(#clip2)">
<path style=" stroke:none;fill-rule:nonzero;fill:rgb(0%,0%,0%);fill-opacity:1;" d="M 387.800781 332.171875 C 387.910156 331.820312 392.199219 309.738281 387.800781 294.078125 C 383.800781 279.71875 378.578125 274.421875 371.140625 273.25 C 363.699219 272.078125 360.46875 277.441406 364.421875 284.699219 C 368.371094 291.960938 377.878906 301.589844 380.210938 317.808594 C 381.210938 324.488281 381.96875 330.289062 381.96875 330.289062 Z M 387.800781 332.171875 "/>
</g>
<mask id="mask2">
  <g filter="url(#alpha)">
<rect x="0" y="0" width="500" height="500" style="fill:rgb(0%,0%,0%);fill-opacity:0.701961;stroke:none;"/>
  </g>
</mask>
<clipPath id="clip3">
  <rect x="0" y="0" width="500" height="500"/>
</clipPath>
<g id="surface11" clip-path="url(#clip3)">
<path style=" stroke:none;fill-rule:nonzero;fill:rgb(0%,0%,0%);fill-opacity:1;" d="M 138.621094 191.230469 L 138.621094 346.011719 L 297.039062 254.550781 L 297.03125 113.839844 L 179.238281 181.851562 L 175.171875 170.121094 Z M 138.621094 191.230469 "/>
</g>
<mask id="mask3">
  <g filter="url(#alpha)">
<rect x="0" y="0" width="500" height="500" style="fill:rgb(0%,0%,0%);fill-opacity:0.701961;stroke:none;"/>
  </g>
</mask>
<clipPath id="clip4">
  <rect x="0" y="0" width="500" height="500"/>
</clipPath>
<g id="surface14" clip-path="url(#clip4)">
<path style=" stroke:none;fill-rule:nonzero;fill:rgb(0%,0%,0%);fill-opacity:1;" d="M 138.621094 346.011719 L 150.800781 207.648438 L 309.21875 116.179688 L 297.039062 254.550781 Z M 138.621094 346.011719 "/>
</g>
<mask id="mask4">
  <g filter="url(#alpha)">
<rect x="0" y="0" width="500" height="500" style="fill:rgb(0%,0%,0%);fill-opacity:0.501961;stroke:none;"/>
  </g>
</mask>
<clipPath id="clip5">
  <rect x="0" y="0" width="500" height="500"/>
</clipPath>
<g id="surface17" clip-path="url(#clip5)">
<path style=" stroke:none;fill-rule:nonzero;fill:rgb(0%,0%,0%);fill-opacity:1;" d="M 162.988281 205.300781 L 162.988281 360.089844 L 321.410156 268.621094 L 321.410156 127.910156 L 203.609375 195.921875 L 199.550781 184.191406 Z M 162.988281 205.300781 "/>
</g>
<mask id="mask5">
  <g filter="url(#alpha)">
<rect x="0" y="0" width="500" height="500" style="fill:rgb(0%,0%,0%);fill-opacity:0.501961;stroke:none;"/>
  </g>
</mask>
<clipPath id="clip6">
  <rect x="0" y="0" width="500" height="500"/>
</clipPath>
<g id="surface20" clip-path="url(#clip6)">
<path style=" stroke:none;fill-rule:nonzero;fill:rgb(0%,0%,0%);fill-opacity:1;" d="M 162.988281 360.089844 L 175.171875 221.71875 L 333.589844 130.25 L 321.410156 268.621094 Z M 162.988281 360.089844 "/>
</g>
<mask id="mask6">
  <g filter="url(#alpha)">
<rect x="0" y="0" width="500" height="500" style="fill:rgb(0%,0%,0%);fill-opacity:0.2;stroke:none;"/>
  </g>
</mask>
<clipPath id="clip7">
  <rect x="0" y="0" width="500" height="500"/>
</clipPath>
<g id="surface23" clip-path="url(#clip7)">
<path style=" stroke:none;fill-rule:nonzero;fill:rgb(0%,0%,0%);fill-opacity:1;" d="M 191.421875 221.71875 L 191.421875 376.5 L 349.839844 285.039062 L 349.839844 144.328125 L 232.039062 212.339844 L 227.980469 200.609375 Z M 191.421875 221.71875 "/>
</g>
<mask id="mask7">
  <g filter="url(#alpha)">
<rect x="0" y="0" width="500" height="500" style="fill:rgb(0%,0%,0%);fill-opacity:0.701961;stroke:none;"/>
  </g>
</mask>
<clipPath id="clip8">
  <rect x="0" y="0" width="500" height="500"/>
</clipPath>
<g id="surface26" clip-path="url(#clip8)">
<path style=" stroke:none;fill-rule:nonzero;fill:rgb(100%,100%,100%);fill-opacity:1;" d="M 352.878906 66.488281 C 352.886719 66.5625 352.886719 66.636719 352.878906 66.710938 L 352.878906 198.710938 C 352.8125 199.570312 352.363281 200.359375 351.648438 200.851562 L 237.308594 266.851562 L 237.109375 266.941406 C 237.097656 266.867188 237.097656 266.792969 237.109375 266.71875 L 237.109375 134.71875 C 237.179688 133.863281 237.632812 133.078125 238.339844 132.589844 L 352.679688 66.589844 C 352.742188 66.546875 352.816406 66.515625 352.890625 66.5 M 352.949219 65.5 C 352.675781 65.507812 352.414062 65.585938 352.179688 65.730469 L 237.839844 131.730469 C 236.820312 132.398438 236.179688 133.511719 236.109375 134.730469 L 236.109375 266.730469 C 236.109375 267.511719 236.5 267.960938 237.109375 267.960938 C 237.382812 267.953125 237.648438 267.875 237.878906 267.730469 L 352.21875 201.730469 C 353.242188 201.066406 353.886719 199.949219 353.949219 198.730469 L 353.949219 66.730469 C 353.949219 65.949219 353.558594 65.488281 352.949219 65.5 Z M 352.949219 65.5 "/>
</g>
<mask id="mask8">
  <g filter="url(#alpha)">
<rect x="0" y="0" width="500" height="500" style="fill:rgb(0%,0%,0%);fill-opacity:0.8;stroke:none;"/>
  </g>
</mask>
<clipPath id="clip9">
  <rect x="0" y="0" width="500" height="500"/>
</clipPath>
<g id="surface29" clip-path="url(#clip9)">
<path style=" stroke:none;fill-rule:nonzero;fill:rgb(100%,100%,100%);fill-opacity:1;" d="M 248.289062 139.761719 L 288.910156 116.308594 L 288.910156 163.210938 L 248.289062 186.660156 Z M 248.289062 139.761719 "/>
</g>
<mask id="mask9">
  <g filter="url(#alpha)">
<rect x="0" y="0" width="500" height="500" style="fill:rgb(0%,0%,0%);fill-opacity:0.2;stroke:none;"/>
  </g>
</mask>
<clipPath id="clip10">
  <rect x="0" y="0" width="500" height="500"/>
</clipPath>
<g id="surface32" clip-path="url(#clip10)">
<path style=" stroke:none;fill-rule:nonzero;fill:rgb(0%,0%,0%);fill-opacity:1;" d="M 230.179688 261.941406 L 230.179688 354.128906 L 266.738281 333.019531 L 266.738281 240.839844 Z M 230.179688 261.941406 "/>
</g>
<mask id="mask10">
  <g filter="url(#alpha)">
<rect x="0" y="0" width="500" height="500" style="fill:rgb(0%,0%,0%);fill-opacity:0.701961;stroke:none;"/>
  </g>
</mask>
<clipPath id="clip11">
  <rect x="0" y="0" width="500" height="500"/>
</clipPath>
<g id="surface35" clip-path="url(#clip11)">
<path style=" stroke:none;fill-rule:nonzero;fill:rgb(100%,100%,100%);fill-opacity:1;" d="M 340.71875 197.648438 C 340.71875 213.730469 341.03125 253.648438 357.058594 288.089844 C 371.449219 318.988281 398.808594 341.210938 404.898438 345.898438 L 297.101562 408.140625 C 292.890625 404.96875 264.039062 382.441406 249.199219 350.570312 C 233 315.828125 233 275.269531 233 260 L 233 259.808594 L 340.679688 197.640625 M 341.679688 195.910156 L 232 259.238281 C 232 273.628906 231.699219 315.441406 248.25 350.988281 C 264.539062 385.878906 297 409.339844 297 409.339844 L 406.710938 346 C 406.710938 346 374.210938 322.539062 357.96875 287.648438 C 341.410156 252.101562 341.71875 210.289062 341.71875 195.898438 Z M 341.679688 195.910156 "/>
</g>
<mask id="mask11">
  <g filter="url(#alpha)">
<rect x="0" y="0" width="500" height="500" style="fill:rgb(0%,0%,0%);fill-opacity:0.8;stroke:none;"/>
  </g>
</mask>
<clipPath id="clip12">
  <rect x="0" y="0" width="500" height="500"/>
</clipPath>
<g id="surface38" clip-path="url(#clip12)">
<path style=" stroke:none;fill-rule:nonzero;fill:rgb(100%,100%,100%);fill-opacity:1;" d="M 282.058594 244.441406 L 242.179688 267.441406 C 242.621094 281.890625 244.269531 302.730469 250.308594 323.71875 L 290.199219 300.71875 C 284.148438 279.730469 282.5 258.878906 282.058594 244.441406 Z M 282.058594 244.441406 "/>
</g>
<mask id="mask12">
  <g filter="url(#alpha)">
<rect x="0" y="0" width="500" height="500" style="fill:rgb(0%,0%,0%);fill-opacity:0.6;stroke:none;"/>
  </g>
</mask>
<clipPath id="clip13">
  <rect x="0" y="0" width="500" height="500"/>
</clipPath>
<g id="surface41" clip-path="url(#clip13)">
<path style=" stroke:none;fill-rule:nonzero;fill:rgb(100%,100%,100%);fill-opacity:1;" d="M 258.441406 264.261719 C 258.550781 262.375 257.84375 260.53125 256.5 259.199219 L 242.179688 267.460938 C 242.300781 271.28125 242.5 275.550781 242.851562 280.148438 C 244.710938 280.363281 246.597656 280.015625 248.261719 279.148438 C 253.890625 276.570312 258.441406 269.878906 258.441406 264.261719 Z M 258.441406 264.261719 "/>
</g>
<mask id="mask13">
  <g filter="url(#alpha)">
<rect x="0" y="0" width="500" height="500" style="fill:rgb(0%,0%,0%);fill-opacity:0.6;stroke:none;"/>
  </g>
</mask>
<clipPath id="clip14">
  <rect x="0" y="0" width="500" height="500"/>
</clipPath>
<g id="surface44" clip-path="url(#clip14)">
<path style=" stroke:none;fill-rule:nonzero;fill:rgb(100%,100%,100%);fill-opacity:1;" d="M 286.808594 286.921875 C 284.148438 283.570312 278.738281 273.21875 276.429688 268.710938 C 276.246094 268.34375 275.855469 268.128906 275.449219 268.167969 C 275.039062 268.207031 274.695312 268.488281 274.578125 268.878906 C 272.082031 277.421875 270.628906 286.238281 270.261719 295.128906 C 266.929688 292.484375 264.066406 289.300781 261.789062 285.710938 C 261.59375 285.425781 261.246094 285.28125 260.90625 285.34375 C 260.566406 285.402344 260.289062 285.65625 260.199219 285.988281 C 255.839844 302.78125 258.03125 319.300781 258.03125 319.300781 L 290.199219 300.71875 C 288.859375 296.078125 287.75 291.460938 286.808594 286.921875 Z M 286.808594 286.921875 "/>
</g>
</defs>
<g id="surface1">
<path style=" stroke:none;fill-rule:nonzero;fill:rgb(96.078431%,96.078431%,96.078431%);fill-opacity:1;" d="M 98 388.25 C 185.460938 433.941406 327.269531 433.941406 414.730469 388.25 C 502.191406 342.558594 502.191406 268.480469 414.730469 222.78125 C 327.269531 177.078125 185.5 177.089844 98 222.78125 C 10.5 268.46875 10.578125 342.558594 98 388.25 Z M 98 388.25 "/>
<path style=" stroke:none;fill-rule:nonzero;fill:rgb(87.843137%,87.843137%,87.843137%);fill-opacity:1;" d="M 73.621094 313.320312 L 45.191406 296.910156 L 45.191406 235.929688 L 73.621094 252.351562 Z M 73.621094 313.320312 "/>
<path style=" stroke:none;fill-rule:nonzero;fill:rgb(92.156863%,92.156863%,92.156863%);fill-opacity:1;" d="M 73.621094 252.351562 L 114.238281 228.898438 L 114.238281 289.871094 L 73.621094 313.320312 Z M 73.621094 252.351562 "/>
<path style=" stroke:none;fill-rule:nonzero;fill:rgb(96.078431%,96.078431%,96.078431%);fill-opacity:1;" d="M 114.238281 228.898438 L 73.621094 252.351562 L 45.191406 235.929688 L 85.808594 212.480469 Z M 114.238281 228.898438 "/>
<path style=" stroke:none;fill-rule:nonzero;fill:rgb(87.843137%,87.843137%,87.843137%);fill-opacity:1;" d="M 77.691406 254.691406 L 110.179688 235.929688 L 110.929688 236.359375 L 110.929688 258.949219 L 78.429688 277.710938 L 77.679688 277.28125 Z M 77.691406 254.691406 "/>
<path style=" stroke:none;fill-rule:nonzero;fill:rgb(96.078431%,96.078431%,96.078431%);fill-opacity:1;" d="M 78.429688 255.128906 L 110.929688 236.359375 L 110.929688 258.949219 L 78.429688 277.710938 Z M 78.429688 255.128906 "/>
<path style=" stroke:none;fill-rule:nonzero;fill:rgb(87.843137%,87.843137%,87.843137%);fill-opacity:1;" d="M 91.171875 251.601562 L 96.699219 248.410156 C 97.410156 247.988281 97.988281 248.179688 97.988281 248.828125 C 97.886719 249.636719 97.40625 250.347656 96.699219 250.75 L 91.171875 253.941406 C 90.449219 254.359375 89.871094 254.171875 89.871094 253.519531 C 89.976562 252.710938 90.457031 252 91.171875 251.601562 Z M 91.171875 251.601562 "/>
<path style=" stroke:none;fill-rule:nonzero;fill:rgb(87.843137%,87.843137%,87.843137%);fill-opacity:1;" d="M 76.941406 283.269531 L 109.429688 264.511719 L 109.429688 287.101562 L 110.179688 287.53125 L 77.679688 306.289062 L 76.941406 305.859375 Z M 76.941406 283.269531 "/>
<path style=" stroke:none;fill-rule:nonzero;fill:rgb(96.078431%,96.078431%,96.078431%);fill-opacity:1;" d="M 77.679688 283.699219 L 110.179688 264.941406 L 110.179688 287.53125 L 77.679688 306.289062 Z M 77.679688 283.699219 "/>
<path style=" stroke:none;fill-rule:nonzero;fill:rgb(87.843137%,87.843137%,87.843137%);fill-opacity:1;" d="M 90.421875 280.179688 L 96 277 C 96.71875 276.578125 97.300781 276.769531 97.300781 277.421875 C 97.195312 278.230469 96.710938 278.941406 96 279.339844 L 90.46875 282.53125 C 89.75 282.949219 89.171875 282.761719 89.171875 282.109375 C 89.261719 281.304688 89.722656 280.59375 90.421875 280.179688 Z M 90.421875 280.179688 "/>
<path style=" stroke:none;fill-rule:nonzero;fill:rgb(87.843137%,87.843137%,87.843137%);fill-opacity:1;" d="M 73.621094 248.828125 L 45.191406 232.410156 L 45.191406 171.441406 L 73.621094 187.851562 Z M 73.621094 248.828125 "/>
<path style=" stroke:none;fill-rule:nonzero;fill:rgb(92.156863%,92.156863%,92.156863%);fill-opacity:1;" d="M 73.621094 187.851562 L 114.238281 164.398438 L 114.238281 225.378906 L 73.621094 248.828125 Z M 73.621094 187.851562 "/>
<path style=" stroke:none;fill-rule:nonzero;fill:rgb(96.078431%,96.078431%,96.078431%);fill-opacity:1;" d="M 114.238281 164.398438 L 73.621094 187.851562 L 45.191406 171.441406 L 85.808594 147.988281 Z M 114.238281 164.398438 "/>
<path style=" stroke:none;fill-rule:nonzero;fill:rgb(87.843137%,87.843137%,87.843137%);fill-opacity:1;" d="M 77.679688 190.199219 L 110.179688 171.441406 L 110.929688 171.871094 L 110.929688 194.460938 L 78.429688 213.21875 L 77.679688 212.78125 Z M 77.679688 190.199219 "/>
<path style=" stroke:none;fill-rule:nonzero;fill:rgb(87.843137%,87.843137%,87.843137%);fill-opacity:1;" d="M 91.171875 187.101562 L 96.691406 183.910156 C 97.410156 183.5 97.988281 183.691406 97.988281 184.339844 C 97.882812 185.148438 97.402344 185.859375 96.691406 186.261719 L 91.171875 189.449219 C 90.449219 189.859375 89.871094 189.679688 89.871094 189.03125 C 89.976562 188.21875 90.457031 187.503906 91.171875 187.101562 Z M 91.171875 187.101562 "/>
<path style=" stroke:none;fill-rule:nonzero;fill:rgb(87.843137%,87.843137%,87.843137%);fill-opacity:1;" d="M 76.941406 218.78125 L 109.429688 200.019531 L 109.429688 222.601562 L 110.179688 223.03125 L 77.679688 241.789062 L 76.941406 241.359375 Z M 76.941406 218.78125 "/>
<path style=" stroke:none;fill-rule:nonzero;fill:rgb(96.078431%,96.078431%,96.078431%);fill-opacity:1;" d="M 77.679688 219.210938 L 110.179688 200.449219 L 110.179688 223.03125 L 77.679688 241.789062 Z M 77.679688 219.210938 "/>
<path style=" stroke:none;fill-rule:nonzero;fill:rgb(87.843137%,87.843137%,87.843137%);fill-opacity:1;" d="M 90.421875 215.679688 L 96 212.488281 C 96.710938 212.078125 97.300781 212.269531 97.300781 212.921875 C 97.1875 213.726562 96.707031 214.433594 96 214.839844 L 90.421875 218 C 89.699219 218.410156 89.121094 218.21875 89.121094 217.578125 C 89.234375 216.78125 89.714844 216.078125 90.421875 215.679688 Z M 90.421875 215.679688 "/>
<path style=" stroke:none;fill-rule:nonzero;fill:rgb(87.843137%,87.843137%,87.843137%);fill-opacity:1;" d="M 77.679688 190.199219 L 110.179688 171.441406 L 110.179688 194.019531 L 77.679688 212.78125 Z M 77.679688 190.199219 "/>
<path style=" stroke:none;fill-rule:nonzero;fill:rgb(87.843137%,87.843137%,87.843137%);fill-opacity:1;" d="M 126.429688 182.601562 L 108.640625 172.328125 L 108.640625 192.230469 L 126.429688 202.488281 Z M 126.429688 182.601562 "/>
<path style=" stroke:none;fill-rule:nonzero;fill:rgb(92.156863%,92.156863%,92.156863%);fill-opacity:1;" d="M 89.871094 216 L 89.871094 187.851562 L 96.839844 183.808594 L 97.988281 185.511719 L 118.300781 173.78125 L 118.300781 199.578125 Z M 89.871094 216 "/>
<path style=" stroke:none;fill-rule:nonzero;fill:rgb(96.078431%,96.078431%,96.078431%);fill-opacity:1;" d="M 89.871094 216 L 91.898438 191.371094 L 120.328125 174.960938 L 118.300781 199.578125 Z M 89.871094 216 "/>
<path style=" stroke:none;fill-rule:nonzero;fill:rgb(92.156863%,92.156863%,92.156863%);fill-opacity:1;" d="M 93.929688 201.359375 L 78.429688 192.410156 L 78.429688 212.308594 L 93.929688 221.25 Z M 93.929688 201.359375 "/>
<path style=" stroke:none;fill-rule:nonzero;fill:rgb(96.078431%,96.078431%,96.078431%);fill-opacity:1;" d="M 93.929688 199.578125 L 126.429688 180.820312 L 126.429688 203.398438 L 93.929688 222.160156 Z M 93.929688 199.578125 "/>
<path style=" stroke:none;fill-rule:nonzero;fill:rgb(87.843137%,87.843137%,87.843137%);fill-opacity:1;" d="M 106.671875 196.050781 L 112.191406 192.859375 C 112.910156 192.449219 113.488281 192.640625 113.488281 193.289062 C 113.378906 194.097656 112.898438 194.808594 112.191406 195.210938 L 106.671875 198.398438 C 105.949219 198.808594 105.371094 198.621094 105.371094 197.980469 C 105.476562 197.167969 105.957031 196.453125 106.671875 196.050781 Z M 106.671875 196.050781 "/>
<path style=" stroke:none;fill-rule:nonzero;fill:rgb(87.843137%,87.843137%,87.843137%);fill-opacity:1;" d="M 93.929688 199.578125 L 92.851562 198.960938 L 92.851562 221.539062 L 93.929688 222.160156 Z M 93.929688 199.578125 "/>
<path style=" stroke:none;fill-rule:nonzero;fill:rgb(92.156863%,92.156863%,92.156863%);fill-opacity:1;" d="M 92.851562 198.960938 L 125.339844 180.191406 L 126.429688 180.820312 L 93.929688 199.578125 Z M 92.851562 198.960938 "/>
<path style=" stroke:none;fill-rule:nonzero;fill:rgb(87.843137%,87.843137%,87.843137%);fill-opacity:1;" d="M 409.5 276.378906 L 381.058594 259.960938 L 381.058594 198.988281 L 409.5 215.398438 Z M 409.5 276.378906 "/>
<path style=" stroke:none;fill-rule:nonzero;fill:rgb(92.156863%,92.156863%,92.156863%);fill-opacity:1;" d="M 409.5 215.398438 L 450.121094 191.949219 L 450.121094 252.929688 L 409.5 276.378906 Z M 409.5 215.398438 "/>
<path style=" stroke:none;fill-rule:nonzero;fill:rgb(96.078431%,96.078431%,96.078431%);fill-opacity:1;" d="M 450.121094 191.949219 L 409.5 215.398438 L 381.058594 198.988281 L 421.691406 175.53125 Z M 450.121094 191.949219 "/>
<path style=" stroke:none;fill-rule:nonzero;fill:rgb(87.843137%,87.843137%,87.843137%);fill-opacity:1;" d="M 413.558594 217.75 L 446.058594 198.988281 L 446.808594 199.421875 L 446.800781 222 L 414.308594 240.761719 L 413.558594 240.328125 Z M 413.558594 217.75 "/>
<path style=" stroke:none;fill-rule:nonzero;fill:rgb(96.078431%,96.078431%,96.078431%);fill-opacity:1;" d="M 414.308594 218.179688 L 446.808594 199.421875 L 446.800781 222 L 414.308594 240.761719 Z M 414.308594 218.179688 "/>
<path style=" stroke:none;fill-rule:nonzero;fill:rgb(87.843137%,87.843137%,87.843137%);fill-opacity:1;" d="M 427.050781 214.648438 L 432.570312 211.460938 C 433.289062 211.050781 433.871094 211.238281 433.871094 211.878906 C 433.761719 212.691406 433.28125 213.40625 432.570312 213.808594 L 427.050781 217 C 426.328125 217.410156 425.75 217.21875 425.75 216.578125 C 425.855469 215.769531 426.339844 215.054688 427.050781 214.648438 Z M 427.050781 214.648438 "/>
<path style=" stroke:none;fill-rule:nonzero;fill:rgb(87.843137%,87.843137%,87.843137%);fill-opacity:1;" d="M 412.808594 246.328125 L 445.308594 227.558594 L 445.308594 250.148438 L 446.058594 250.578125 L 413.558594 269.339844 L 412.808594 268.910156 Z M 412.808594 246.328125 "/>
<path style=" stroke:none;fill-rule:nonzero;fill:rgb(96.078431%,96.078431%,96.078431%);fill-opacity:1;" d="M 413.558594 246.761719 L 446.058594 228 L 446.058594 250.578125 L 413.558594 269.339844 Z M 413.558594 246.761719 "/>
<path style=" stroke:none;fill-rule:nonzero;fill:rgb(87.843137%,87.843137%,87.843137%);fill-opacity:1;" d="M 426.300781 243.230469 L 431.828125 240.039062 C 432.539062 239.628906 433.121094 239.820312 433.121094 240.460938 C 433.011719 241.269531 432.535156 241.980469 431.828125 242.390625 L 426.300781 245.578125 C 425.578125 245.988281 425 245.800781 425 245.148438 C 425.109375 244.34375 425.589844 243.632812 426.300781 243.230469 Z M 426.300781 243.230469 "/>
<path style=" stroke:none;fill-rule:nonzero;fill:rgb(25.098039%,48.235294%,100%);fill-opacity:1;" d="M 139 340.109375 C 139 340.109375 139.109375 324.25 129.109375 312.359375 C 120.261719 301.828125 115.550781 295.148438 118.339844 292.070312 C 121.128906 288.988281 127.128906 288.25 135.21875 296.769531 C 143.308594 305.289062 143.941406 328.890625 142.820312 334.230469 Z M 139 340.109375 "/>
<use xlink:href="#surface5" mask="url(#mask0)"/>
<path style=" stroke:none;fill-rule:nonzero;fill:rgb(100%,100%,100%);fill-opacity:1;" d="M 140.679688 323.058594 C 140.445312 323.0625 140.242188 322.898438 140.191406 322.671875 C 136.691406 306.300781 127.710938 297.25 122.660156 293.308594 C 122.441406 293.140625 122.402344 292.828125 122.570312 292.609375 C 122.742188 292.390625 123.058594 292.351562 123.28125 292.519531 C 128.429688 296.519531 137.601562 305.78125 141.171875 322.460938 C 141.199219 322.589844 141.175781 322.722656 141.105469 322.835938 C 141.03125 322.945312 140.917969 323.023438 140.789062 323.050781 Z M 140.679688 323.058594 "/>
<path style=" stroke:none;fill-rule:nonzero;fill:rgb(25.098039%,48.235294%,100%);fill-opacity:1;" d="M 138.621094 346 L 134.550781 348.351562 C 133.667969 345.9375 131.589844 344.160156 129.070312 343.660156 C 124.621094 342.660156 120 342.828125 116.878906 338.96875 C 113.761719 335.109375 117.558594 330.910156 116.878906 328.070312 C 116.199219 325.230469 115.761719 324.410156 110.179688 321.570312 C 104.601562 318.730469 102.398438 314.019531 106.601562 310.828125 C 110.800781 307.640625 117.601562 309.980469 121.71875 312.828125 C 125.378906 315.328125 128.859375 315.988281 132.949219 316.5 C 137.039062 317.011719 143.699219 319.28125 142.679688 328.78125 C 142.011719 334.660156 140.648438 340.441406 138.621094 346 Z M 138.621094 346 "/>
<path style=" stroke:none;fill-rule:nonzero;fill:rgb(100%,100%,100%);fill-opacity:1;" d="M 123 333.519531 C 122.78125 333.519531 122.589844 333.378906 122.519531 333.171875 C 122.441406 332.90625 122.585938 332.625 122.851562 332.539062 C 123.210938 332.429688 131.851562 329.691406 135.519531 332.628906 C 135.707031 332.808594 135.730469 333.101562 135.566406 333.304688 C 135.40625 333.507812 135.117188 333.554688 134.898438 333.410156 C 131.660156 330.808594 123.238281 333.46875 123.148438 333.5 Z M 123 333.519531 "/>
<path style=" stroke:none;fill-rule:nonzero;fill:rgb(100%,100%,100%);fill-opacity:1;" d="M 139.070312 345.238281 C 138.816406 345.242188 138.605469 345.050781 138.578125 344.800781 C 136.351562 323.738281 110.980469 313.75 110.730469 313.648438 C 110.605469 313.601562 110.503906 313.507812 110.449219 313.386719 C 110.394531 313.261719 110.390625 313.125 110.441406 313 C 110.542969 312.75 110.824219 312.621094 111.078125 312.710938 C 111.351562 312.820312 137.28125 323.019531 139.570312 344.710938 C 139.597656 344.984375 139.402344 345.230469 139.128906 345.261719 Z M 139.070312 345.238281 "/>
<path style=" stroke:none;fill-rule:nonzero;fill:rgb(25.098039%,48.235294%,100%);fill-opacity:1;" d="M 387.800781 332.171875 C 387.910156 331.820312 392.199219 309.738281 387.800781 294.078125 C 383.800781 279.71875 378.578125 274.421875 371.140625 273.25 C 363.699219 272.078125 360.46875 277.441406 364.421875 284.699219 C 368.371094 291.960938 377.878906 301.589844 380.210938 317.808594 C 381.210938 324.488281 381.96875 330.289062 381.96875 330.289062 Z M 387.800781 332.171875 "/>
<use xlink:href="#surface8" mask="url(#mask1)"/>
<path style=" stroke:none;fill-rule:nonzero;fill:rgb(100%,100%,100%);fill-opacity:1;" d="M 385.289062 319.488281 C 385.15625 319.480469 385.03125 319.421875 384.945312 319.324219 C 384.855469 319.222656 384.8125 319.09375 384.820312 318.960938 C 385.820312 301.078125 379.980469 285.121094 369.511719 277.289062 C 369.289062 277.125 369.246094 276.8125 369.410156 276.589844 C 369.578125 276.375 369.886719 276.328125 370.109375 276.488281 C 380.839844 284.488281 386.859375 300.808594 385.808594 319.019531 C 385.792969 319.292969 385.5625 319.5 385.289062 319.488281 Z M 385.289062 319.488281 "/>
<path style=" stroke:none;fill-rule:nonzero;fill:rgb(25.098039%,48.235294%,100%);fill-opacity:1;" d="M 399.308594 343.671875 C 398.738281 339.558594 401.101562 333.398438 406.710938 331.941406 C 412.320312 330.480469 414.820312 327.261719 412.800781 323.738281 C 410.78125 320.21875 411.25 316.988281 416.339844 315.53125 C 421.429688 314.070312 425.890625 311.53125 422.960938 306.148438 C 420.828125 302.261719 420.359375 299.738281 425.578125 292.078125 C 429.910156 285.71875 426.371094 281.988281 420.949219 282.691406 C 415.53125 283.390625 412.179688 289.851562 408.789062 290.929688 C 405.398438 292.011719 404.621094 286.25 400.148438 288.828125 C 395.679688 291.410156 395.949219 298.019531 395.808594 302.628906 C 395.671875 307.238281 395.371094 308.28125 391.328125 307.71875 C 387.289062 307.160156 383.328125 307.820312 383.421875 317.589844 C 383.488281 325.96875 387.960938 336.351562 387.960938 336.351562 Z M 399.308594 343.671875 "/>
<path style=" stroke:none;fill-rule:nonzero;fill:rgb(100%,100%,100%);fill-opacity:1;" d="M 392.21875 337.421875 L 392.171875 337.421875 C 391.890625 337.386719 391.691406 337.136719 391.71875 336.859375 C 394.539062 311.671875 416.160156 290.421875 421.800781 286.109375 C 422.019531 285.941406 422.335938 285.984375 422.503906 286.203125 C 422.671875 286.425781 422.632812 286.742188 422.410156 286.910156 C 416.839844 291.160156 395.5 312.128906 392.71875 336.96875 C 392.691406 337.222656 392.476562 337.417969 392.21875 337.421875 Z M 392.21875 337.421875 "/>
<path style=" stroke:none;fill-rule:nonzero;fill:rgb(100%,100%,100%);fill-opacity:1;" d="M 402.078125 310.488281 C 401.871094 310.488281 401.6875 310.363281 401.609375 310.171875 C 401.519531 309.90625 401.652344 309.621094 401.910156 309.519531 C 409.96875 306.519531 419.109375 307.941406 419.5 308 C 419.769531 308.046875 419.953125 308.300781 419.910156 308.570312 C 419.859375 308.835938 419.609375 309.019531 419.339844 308.988281 C 419.25 308.988281 410.070312 307.550781 402.261719 310.460938 C 402.203125 310.480469 402.140625 310.488281 402.078125 310.488281 Z M 402.078125 310.488281 "/>
<path style=" stroke:none;fill-rule:nonzero;fill:rgb(100%,100%,100%);fill-opacity:1;" d="M 394.898438 325.628906 C 394.757812 325.628906 394.625 325.566406 394.53125 325.460938 C 391.179688 321.554688 388.90625 316.84375 387.941406 311.789062 C 387.921875 311.660156 387.953125 311.523438 388.03125 311.417969 C 388.109375 311.3125 388.230469 311.238281 388.359375 311.21875 C 388.492188 311.199219 388.625 311.234375 388.730469 311.3125 C 388.839844 311.390625 388.910156 311.507812 388.929688 311.640625 C 389.886719 316.496094 392.074219 321.023438 395.28125 324.789062 C 395.40625 324.941406 395.4375 325.152344 395.355469 325.332031 C 395.273438 325.511719 395.097656 325.625 394.898438 325.628906 Z M 394.898438 325.628906 "/>
<path style=" stroke:none;fill-rule:nonzero;fill:rgb(25.098039%,48.235294%,100%);fill-opacity:1;" d="M 138.621094 191.230469 L 138.621094 346.011719 L 297.039062 254.550781 L 297.03125 113.839844 L 179.238281 181.851562 L 175.171875 170.121094 Z M 138.621094 191.230469 "/>
<use xlink:href="#surface11" mask="url(#mask2)"/>
<path style=" stroke:none;fill-rule:nonzero;fill:rgb(87.843137%,87.843137%,87.843137%);fill-opacity:1;" d="M 138.621094 346.011719 L 146.738281 205.300781 L 305.160156 113.839844 L 297.039062 254.550781 Z M 138.621094 346.011719 "/>
<path style=" stroke:none;fill-rule:nonzero;fill:rgb(25.098039%,48.235294%,100%);fill-opacity:1;" d="M 138.621094 346.011719 L 150.800781 207.648438 L 309.21875 116.179688 L 297.039062 254.550781 Z M 138.621094 346.011719 "/>
<use xlink:href="#surface14" mask="url(#mask3)"/>
<path style=" stroke:none;fill-rule:nonzero;fill:rgb(25.098039%,48.235294%,100%);fill-opacity:1;" d="M 162.988281 205.300781 L 162.988281 360.089844 L 321.410156 268.621094 L 321.410156 127.910156 L 203.609375 195.921875 L 199.550781 184.191406 Z M 162.988281 205.300781 "/>
<use xlink:href="#surface17" mask="url(#mask4)"/>
<path style=" stroke:none;fill-rule:nonzero;fill:rgb(87.843137%,87.843137%,87.843137%);fill-opacity:1;" d="M 162.988281 360.089844 L 171.109375 219.371094 L 329.53125 127.910156 L 321.410156 268.621094 Z M 162.988281 360.089844 "/>
<path style=" stroke:none;fill-rule:nonzero;fill:rgb(25.098039%,48.235294%,100%);fill-opacity:1;" d="M 162.988281 360.089844 L 175.171875 221.71875 L 333.589844 130.25 L 321.410156 268.621094 Z M 162.988281 360.089844 "/>
<use xlink:href="#surface20" mask="url(#mask5)"/>
<path style=" stroke:none;fill-rule:nonzero;fill:rgb(87.843137%,87.843137%,87.843137%);fill-opacity:1;" d="M 297 409.339844 C 268.558594 392.921875 242.179688 375.070312 230.140625 354.128906 L 266.738281 333 Z M 297 409.339844 "/>
<path style=" stroke:none;fill-rule:nonzero;fill:rgb(25.098039%,48.235294%,100%);fill-opacity:1;" d="M 191.421875 221.71875 L 191.421875 376.5 L 349.839844 285.039062 L 349.839844 144.328125 L 232.039062 212.339844 L 227.980469 200.609375 Z M 191.421875 221.71875 "/>
<use xlink:href="#surface23" mask="url(#mask6)"/>
<path style=" stroke:none;fill-rule:nonzero;fill:rgb(100%,100%,100%);fill-opacity:1;" d="M 237.058594 267.480469 C 236.660156 267.480469 236.601562 267.019531 236.601562 266.75 L 236.601562 134.75 C 236.664062 133.710938 237.214844 132.765625 238.078125 132.191406 L 352.421875 66.191406 C 352.578125 66.09375 352.753906 66.039062 352.941406 66.03125 C 353.339844 66.03125 353.398438 66.488281 353.398438 66.761719 L 353.398438 198.761719 C 353.335938 199.800781 352.789062 200.753906 351.921875 201.328125 L 237.578125 267.328125 C 237.421875 267.421875 237.242188 267.472656 237.058594 267.480469 Z M 237.058594 267.480469 "/>
<path style=" stroke:none;fill-rule:nonzero;fill:rgb(25.098039%,48.235294%,100%);fill-opacity:1;" d="M 352.878906 66.488281 C 352.886719 66.5625 352.886719 66.636719 352.878906 66.710938 L 352.878906 198.710938 C 352.8125 199.570312 352.363281 200.359375 351.648438 200.851562 L 237.308594 266.851562 L 237.109375 266.941406 C 237.097656 266.867188 237.097656 266.792969 237.109375 266.71875 L 237.109375 134.71875 C 237.179688 133.863281 237.632812 133.078125 238.339844 132.589844 L 352.679688 66.589844 C 352.742188 66.546875 352.816406 66.515625 352.890625 66.5 M 352.949219 65.5 C 352.675781 65.507812 352.414062 65.585938 352.179688 65.730469 L 237.839844 131.730469 C 236.820312 132.398438 236.179688 133.511719 236.109375 134.730469 L 236.109375 266.730469 C 236.109375 267.511719 236.5 267.960938 237.109375 267.960938 C 237.382812 267.953125 237.648438 267.875 237.878906 267.730469 L 352.21875 201.730469 C 353.242188 201.066406 353.886719 199.949219 353.949219 198.730469 L 353.949219 66.730469 C 353.949219 65.949219 353.558594 65.488281 352.949219 65.5 Z M 352.949219 65.5 "/>
<use xlink:href="#surface26" mask="url(#mask7)"/>
<path style=" stroke:none;fill-rule:nonzero;fill:rgb(25.098039%,48.235294%,100%);fill-opacity:1;" d="M 248.289062 139.761719 L 288.910156 116.308594 L 288.910156 163.210938 L 248.289062 186.660156 Z M 248.289062 139.761719 "/>
<use xlink:href="#surface29" mask="url(#mask8)"/>
<path style=" stroke:none;fill-rule:nonzero;fill:rgb(100%,100%,100%);fill-opacity:1;" d="M 282.820312 128 L 282.820312 142.101562 L 281.539062 142.808594 L 281.539062 138.5 C 281.539062 136.121094 279.609375 135.308594 277.210938 136.691406 L 260 146.640625 C 257.609375 148.019531 255.671875 151.070312 255.671875 153.449219 L 255.671875 157.761719 L 254.398438 158.519531 L 254.398438 144.449219 Z M 282.820312 128 "/>
<path style=" stroke:none;fill-rule:nonzero;fill:rgb(100%,100%,100%);fill-opacity:1;" d="M 275 163.898438 C 272.921875 165.101562 271.230469 163.839844 271.230469 161.070312 L 271.230469 138.5 L 266 141.339844 L 266 164.089844 C 266 166.851562 264.308594 170.089844 262.230469 171.261719 L 258.449219 173.441406 L 258.449219 174.941406 L 278.761719 163.210938 L 278.761719 161.71875 Z M 275 163.898438 "/>
<path style=" stroke:none;fill-rule:nonzero;fill:rgb(27.058824%,35.294118%,39.215686%);fill-opacity:1;" d="M 297 114 C 297 115.300781 298.171875 115.671875 299.601562 114.851562 L 339.121094 92 C 340.542969 91.195312 341.503906 89.769531 341.71875 88.148438 C 341.71875 86.859375 340.550781 86.480469 339.121094 87.308594 L 299.628906 110.109375 C 298.183594 110.914062 297.207031 112.359375 297 114 Z M 297 114 "/>
<path style=" stroke:none;fill-rule:nonzero;fill:rgb(27.058824%,35.294118%,39.215686%);fill-opacity:1;" d="M 297 128 C 297 129.300781 298.171875 129.679688 299.601562 128.851562 L 339.089844 106.050781 C 340.511719 105.246094 341.472656 103.820312 341.691406 102.199219 C 341.691406 100.910156 340.519531 100.53125 339.089844 101.359375 L 299.601562 124.160156 C 298.179688 124.964844 297.21875 126.382812 297 128 Z M 297 128 "/>
<path style=" stroke:none;fill-rule:nonzero;fill:rgb(27.058824%,35.294118%,39.215686%);fill-opacity:1;" d="M 297 142.101562 C 297 143.398438 298.171875 143.78125 299.601562 142.949219 L 339.089844 120.148438 C 340.507812 119.347656 341.46875 117.925781 341.691406 116.308594 C 341.691406 115.011719 340.519531 114.628906 339.089844 115.460938 L 299.601562 138.261719 C 298.179688 139.0625 297.21875 140.484375 297 142.101562 Z M 297 142.101562 "/>
<path style=" stroke:none;fill-rule:nonzero;fill:rgb(27.058824%,35.294118%,39.215686%);fill-opacity:1;" d="M 297 156.171875 C 297 157.46875 298.171875 157.851562 299.601562 157.019531 L 339.089844 134.21875 C 340.507812 133.417969 341.46875 131.996094 341.691406 130.378906 C 341.691406 129.078125 340.519531 128.699219 339.089844 129.53125 L 299.601562 152.328125 C 298.179688 153.132812 297.21875 154.554688 297 156.171875 Z M 297 156.171875 "/>
<path style=" stroke:none;fill-rule:nonzero;fill:rgb(27.058824%,35.294118%,39.215686%);fill-opacity:1;" d="M 248.289062 198.390625 C 248.289062 199.691406 249.449219 200.070312 250.890625 199.238281 L 339.121094 148.238281 C 340.542969 147.4375 341.503906 146.015625 341.71875 144.398438 C 341.71875 143.101562 340.550781 142.730469 339.121094 143.550781 L 250.890625 194.550781 C 249.46875 195.351562 248.503906 196.773438 248.289062 198.390625 Z M 248.289062 198.390625 "/>
<path style=" stroke:none;fill-rule:nonzero;fill:rgb(27.058824%,35.294118%,39.215686%);fill-opacity:1;" d="M 248.289062 212.460938 C 248.289062 213.761719 249.449219 214.140625 250.890625 213.308594 L 339.121094 162.371094 C 340.542969 161.5625 341.503906 160.140625 341.71875 158.519531 C 341.71875 157.230469 340.550781 156.851562 339.121094 157.679688 L 250.890625 208.621094 C 249.46875 209.421875 248.503906 210.84375 248.289062 212.460938 Z M 248.289062 212.460938 "/>
<path style=" stroke:none;fill-rule:nonzero;fill:rgb(27.058824%,35.294118%,39.215686%);fill-opacity:1;" d="M 248.289062 226.539062 C 248.289062 227.828125 249.449219 228.210938 250.890625 227.378906 L 339.121094 176.441406 C 340.542969 175.632812 341.503906 174.210938 341.71875 172.589844 C 341.71875 171.300781 340.550781 170.921875 339.121094 171.75 L 250.890625 222.691406 C 249.464844 223.492188 248.5 224.917969 248.289062 226.539062 Z M 248.289062 226.539062 "/>
<path style=" stroke:none;fill-rule:nonzero;fill:rgb(25.098039%,48.235294%,100%);fill-opacity:1;" d="M 191.421875 376.5 L 219.851562 252.210938 L 378.269531 160.738281 L 349.839844 285.039062 Z M 191.421875 376.5 "/>
<path style=" stroke:none;fill-rule:nonzero;fill:rgb(25.098039%,48.235294%,100%);fill-opacity:1;" d="M 230.179688 261.941406 L 230.179688 354.128906 L 266.738281 333.019531 L 266.738281 240.839844 Z M 230.179688 261.941406 "/>
<use xlink:href="#surface32" mask="url(#mask9)"/>
<path style=" stroke:none;fill-rule:nonzero;fill:rgb(100%,100%,100%);fill-opacity:1;" d="M 297.070312 408.738281 C 293.960938 406.421875 263.980469 383.511719 248.738281 350.738281 C 232.519531 315.898438 232.539062 275.261719 232.539062 259.96875 L 232.539062 259.488281 L 341.21875 196.75 C 341.21875 212.179688 341.21875 252.878906 357.511719 287.839844 C 372.398438 319.839844 401.230469 342.460938 405.800781 345.921875 Z M 297.070312 408.738281 "/>
<path style=" stroke:none;fill-rule:nonzero;fill:rgb(25.098039%,48.235294%,100%);fill-opacity:1;" d="M 340.71875 197.648438 C 340.71875 213.730469 341.03125 253.648438 357.058594 288.089844 C 371.449219 318.988281 398.808594 341.210938 404.898438 345.898438 L 297.101562 408.140625 C 292.890625 404.96875 264.039062 382.441406 249.199219 350.570312 C 233 315.828125 233 275.269531 233 260 L 233 259.808594 L 340.679688 197.640625 M 341.679688 195.910156 L 232 259.238281 C 232 273.628906 231.699219 315.441406 248.25 350.988281 C 264.539062 385.878906 297 409.339844 297 409.339844 L 406.710938 346 C 406.710938 346 374.210938 322.539062 357.96875 287.648438 C 341.410156 252.101562 341.71875 210.289062 341.71875 195.898438 Z M 341.679688 195.910156 "/>
<use xlink:href="#surface35" mask="url(#mask10)"/>
<path style=" stroke:none;fill-rule:nonzero;fill:rgb(27.058824%,35.294118%,39.215686%);fill-opacity:1;" d="M 329.308594 217.148438 L 294.628906 237.148438 C 293.222656 237.925781 292.28125 239.339844 292.109375 240.941406 C 292.160156 242.210938 293.371094 242.570312 294.800781 241.738281 L 329.488281 221.738281 C 330.882812 220.972656 331.816406 219.578125 332 218 C 331.941406 216.679688 330.75 216.320312 329.308594 217.148438 Z M 329.308594 217.148438 "/>
<path style=" stroke:none;fill-rule:nonzero;fill:rgb(27.058824%,35.294118%,39.215686%);fill-opacity:1;" d="M 330.050781 230.800781 L 295.371094 250.800781 C 293.976562 251.550781 293.0625 252.960938 292.949219 254.539062 C 293.058594 255.769531 294.320312 256.101562 295.75 255.269531 L 330.441406 235.269531 C 331.828125 234.523438 332.730469 233.113281 332.828125 231.539062 C 332.730469 230.300781 331.488281 230 330.050781 230.800781 Z M 330.050781 230.800781 "/>
<path style=" stroke:none;fill-rule:nonzero;fill:rgb(27.058824%,35.294118%,39.215686%);fill-opacity:1;" d="M 331.441406 244.070312 L 296.75 264.070312 C 295.320312 264.898438 294.28125 266.550781 294.449219 267.738281 C 294.621094 268.929688 295.929688 269.238281 297.371094 268.410156 L 332.058594 248.410156 C 333.488281 247.578125 334.511719 245.941406 334.328125 244.75 C 334.148438 243.558594 332.871094 243.238281 331.441406 244.070312 Z M 331.441406 244.070312 "/>
<path style=" stroke:none;fill-rule:nonzero;fill:rgb(27.058824%,35.294118%,39.215686%);fill-opacity:1;" d="M 333.519531 256.941406 L 298.828125 276.941406 C 297.398438 277.769531 296.410156 279.390625 296.648438 280.550781 C 296.890625 281.710938 298.25 281.96875 299.648438 281.140625 L 334.328125 261.140625 C 335.769531 260.308594 336.730469 258.699219 336.488281 257.539062 C 336.25 256.378906 335 256.109375 333.519531 256.941406 Z M 333.519531 256.941406 "/>
<path style=" stroke:none;fill-rule:nonzero;fill:rgb(27.058824%,35.294118%,39.215686%);fill-opacity:1;" d="M 336.339844 269.378906 L 301.648438 289.378906 C 300.21875 290.210938 299.289062 291.789062 299.648438 292.898438 C 300.011719 294.011719 301.378906 294.261719 302.808594 293.429688 L 337.5 273.429688 C 338.941406 272.601562 339.839844 271.03125 339.5 269.910156 C 339.160156 268.789062 337.769531 268.550781 336.339844 269.378906 Z M 336.339844 269.378906 "/>
<path style=" stroke:none;fill-rule:nonzero;fill:rgb(27.058824%,35.294118%,39.215686%);fill-opacity:1;" d="M 340 281.371094 L 255.460938 330.179688 C 254.03125 331.011719 253.160156 332.550781 253.550781 333.621094 C 253.941406 334.691406 255.429688 334.890625 256.859375 334.058594 L 341.398438 285.25 C 342.839844 284.421875 343.671875 282.890625 343.28125 281.808594 C 342.890625 280.730469 341.378906 280.539062 340 281.371094 Z M 340 281.371094 "/>
<path style=" stroke:none;fill-rule:nonzero;fill:rgb(27.058824%,35.294118%,39.215686%);fill-opacity:1;" d="M 344.449219 292.820312 L 259.921875 341.628906 C 258.480469 342.460938 257.691406 343.960938 258.171875 344.980469 C 258.648438 346 260.171875 346.160156 261.628906 345.328125 L 346.171875 296.519531 C 347.609375 295.691406 348.378906 294.191406 347.898438 293.171875 C 347.421875 292.148438 345.890625 292 344.449219 292.820312 Z M 344.449219 292.820312 "/>
<path style=" stroke:none;fill-rule:nonzero;fill:rgb(27.058824%,35.294118%,39.215686%);fill-opacity:1;" d="M 350 303.730469 L 265.460938 352.539062 C 264.019531 353.371094 263.308594 354.828125 263.878906 355.800781 C 264.449219 356.769531 266.078125 356.871094 267.519531 356.039062 L 352 307.230469 C 353.429688 306.410156 354.121094 304.960938 353.550781 303.988281 C 352.980469 303.019531 351.398438 302.898438 350 303.730469 Z M 350 303.730469 "/>
<path style=" stroke:none;fill-rule:nonzero;fill:rgb(27.058824%,35.294118%,39.215686%);fill-opacity:1;" d="M 356.46875 314.050781 L 271.941406 362.851562 C 270.5 363.679688 269.859375 365.109375 270.511719 366.019531 C 271.160156 366.929688 272.871094 367.019531 274.308594 366.179688 L 358.839844 317.371094 C 360.28125 316.539062 360.898438 315.128906 360.25 314.210938 C 359.601562 313.289062 357.910156 313.21875 356.46875 314.050781 Z M 356.46875 314.050781 "/>
<path style=" stroke:none;fill-rule:nonzero;fill:rgb(27.058824%,35.294118%,39.215686%);fill-opacity:1;" d="M 363.851562 323.859375 L 279.308594 372.660156 C 277.878906 373.488281 277.308594 374.878906 278.03125 375.75 C 278.75 376.621094 280.519531 376.660156 281.960938 375.828125 L 366.5 327 C 367.929688 326.171875 368.5 324.800781 367.761719 323.929688 C 367.019531 323.058594 365.289062 323 363.851562 323.859375 Z M 363.851562 323.859375 "/>
<path style=" stroke:none;fill-rule:nonzero;fill:rgb(27.058824%,35.294118%,39.215686%);fill-opacity:1;" d="M 372 333.199219 L 287.488281 382 C 286.050781 382.828125 285.488281 384.191406 286.328125 385 C 287.171875 385.808594 288.949219 385.828125 290.378906 385 L 374.921875 336.191406 C 376.359375 335.359375 376.859375 334.019531 376.058594 333.191406 C 375.261719 332.359375 373.460938 332.378906 372 333.199219 Z M 372 333.199219 "/>
<path style=" stroke:none;fill-rule:nonzero;fill:rgb(27.058824%,35.294118%,39.215686%);fill-opacity:1;" d="M 381 342.128906 L 296.460938 390.929688 C 295.03125 391.761719 294.558594 393.089844 295.460938 393.878906 C 296.359375 394.671875 298.199219 394.640625 299.640625 393.808594 L 384.109375 345 C 385.539062 344.171875 385.988281 342.871094 385.109375 342.070312 C 384.230469 341.269531 382.398438 341.300781 381 342.128906 Z M 381 342.128906 "/>
<path style=" stroke:none;fill-rule:nonzero;fill:rgb(25.098039%,48.235294%,100%);fill-opacity:1;" d="M 282.058594 244.441406 L 242.179688 267.441406 C 242.621094 281.890625 244.269531 302.730469 250.308594 323.71875 L 290.199219 300.71875 C 284.148438 279.730469 282.5 258.878906 282.058594 244.441406 Z M 282.058594 244.441406 "/>
<use xlink:href="#surface38" mask="url(#mask11)"/>
<path style=" stroke:none;fill-rule:nonzero;fill:rgb(25.098039%,48.235294%,100%);fill-opacity:1;" d="M 258.441406 264.261719 C 258.550781 262.375 257.84375 260.53125 256.5 259.199219 L 242.179688 267.460938 C 242.300781 271.28125 242.5 275.550781 242.851562 280.148438 C 244.710938 280.363281 246.597656 280.015625 248.261719 279.148438 C 253.890625 276.570312 258.441406 269.878906 258.441406 264.261719 Z M 258.441406 264.261719 "/>
<use xlink:href="#surface41" mask="url(#mask12)"/>
<path style=" stroke:none;fill-rule:nonzero;fill:rgb(25.098039%,48.235294%,100%);fill-opacity:1;" d="M 286.808594 286.921875 C 284.148438 283.570312 278.738281 273.21875 276.429688 268.710938 C 276.246094 268.34375 275.855469 268.128906 275.449219 268.167969 C 275.039062 268.207031 274.695312 268.488281 274.578125 268.878906 C 272.082031 277.421875 270.628906 286.238281 270.261719 295.128906 C 266.929688 292.484375 264.066406 289.300781 261.789062 285.710938 C 261.59375 285.425781 261.246094 285.28125 260.90625 285.34375 C 260.566406 285.402344 260.289062 285.65625 260.199219 285.988281 C 255.839844 302.78125 258.03125 319.300781 258.03125 319.300781 L 290.199219 300.71875 C 288.859375 296.078125 287.75 291.460938 286.808594 286.921875 Z M 286.808594 286.921875 "/>
<use xlink:href="#surface44" mask="url(#mask13)"/>
</g>
</svg>
